<svg version="1.1" id="Layer_1" xmlns="http://www.w3.org/2000/svg" x="0" y="0" viewBox="0 0 512 512" style="enable-background:new 0 0 512 512" xml:space="preserve"><style>.st1{fill:#edf3fc}.st2{fill:#330d84}.st3{fill:#ffbe1b}.st10{fill:#5d8ef9}</style><path class="st1" d="M255.999 40.928c-118.778 0-215.071 96.294-215.071 215.074 0 118.776 96.292 215.068 215.071 215.068S471.07 374.778 471.07 256.002c0-118.78-96.293-215.074-215.071-215.074z"/><path class="st1" d="M255.999 1C115.391 1 1 115.392 1 256.002 1 396.609 115.391 511 255.999 511S511 396.609 511 256.002C511 115.392 396.607 1 255.999 1zm0 501.832c-136.103 0-246.83-110.728-246.83-246.83 0-136.104 110.727-246.833 246.83-246.833 136.102 0 246.832 110.729 246.832 246.833 0 136.102-110.73 246.83-246.832 246.83z"/><path class="st2" d="m434.125 171.174 2.273.57-2.273.57a37.182 37.182 0 0 0-27.033 27.038l-.572 2.271-.57-2.271a37.185 37.185 0 0 0-27.04-27.038l-2.265-.57 2.265-.57a37.191 37.191 0 0 0 27.04-27.033l.57-2.269.572 2.269a37.189 37.189 0 0 0 27.033 27.033zM394.446 114.262l1.137.285-1.137.285a18.591 18.591 0 0 0-13.517 13.519l-.286 1.135-.285-1.135a18.593 18.593 0 0 0-13.52-13.519l-1.133-.285 1.133-.285a18.597 18.597 0 0 0 13.52-13.517l.285-1.134.286 1.134a18.595 18.595 0 0 0 13.517 13.517z"/><path class="st3" d="m121.654 297.515 2.033.51-2.033.508a33.252 33.252 0 0 0-24.172 24.176l-.511 2.029-.51-2.029a33.252 33.252 0 0 0-24.177-24.176l-2.025-.508 2.025-.51a33.25 33.25 0 0 0 24.177-24.173l.51-2.027.511 2.027a33.246 33.246 0 0 0 24.172 24.173z"/><path class="st10" d="m247.31 424.759 1.586.398-1.586.396a25.947 25.947 0 0 0-18.861 18.864l-.398 1.583-.398-1.583a25.947 25.947 0 0 0-18.865-18.864l-1.58-.396 1.58-.398a25.945 25.945 0 0 0 18.865-18.862l.398-1.582.398 1.582a25.944 25.944 0 0 0 18.861 18.862zM194.75 407.899l1.132.284-1.132.283a18.51 18.51 0 0 0-13.455 13.457l-.284 1.13-.284-1.13a18.508 18.508 0 0 0-13.458-13.457l-1.127-.283 1.127-.284a18.509 18.509 0 0 0 13.458-13.455l.284-1.129.284 1.129a18.507 18.507 0 0 0 13.455 13.455zM349.442 382.514h-167.34c-11.397 0-20.633-9.237-20.633-20.637v-211.76c0-11.39 9.237-20.63 20.633-20.63h167.34c11.395 0 20.632 9.241 20.632 20.63v211.76c0 11.399-9.236 20.637-20.632 20.637z"/><path class="st2" d="M182.102 382.514c-11.397 0-20.633-9.237-20.633-20.637v-211.76c0-11.39 9.237-20.63 20.633-20.63h20.139v253.027h-20.139z"/><path class="st3" d="M141.926 179.285c0-5.82 4.718-10.538 10.538-10.538h18.01c5.82 0 10.538 4.718 10.538 10.538s-4.718 10.538-10.538 10.538h-18.01c-5.82-.001-10.538-4.719-10.538-10.538zM141.926 229.692c0-5.82 4.718-10.538 10.538-10.538h18.01c5.82 0 10.538 4.718 10.538 10.538s-4.718 10.538-10.538 10.538h-18.01c-5.82 0-10.538-4.718-10.538-10.538zM141.926 280.099c0-5.82 4.718-10.538 10.538-10.538h18.01c5.82 0 10.538 4.718 10.538 10.538s-4.718 10.538-10.538 10.538h-18.01c-5.82 0-10.538-4.718-10.538-10.538zM141.926 330.507c0-5.82 4.718-10.538 10.538-10.538h18.01c5.82 0 10.538 4.718 10.538 10.538s-4.718 10.538-10.538 10.538h-18.01c-5.82 0-10.538-4.718-10.538-10.538zM334.286 256c0 27.715-22.468 50.181-50.183 50.181-27.714 0-50.181-22.466-50.181-50.181s22.467-50.181 50.181-50.181c27.715 0 50.183 22.466 50.183 50.181z"/><path d="M284.103 306.181c12.5 0 23.923-4.58 32.707-12.14a12.278 12.278 0 0 0-8.671-10.539l-7.684-2.316s-2.523-.734-2.893-.858c-2.343-.787-4.152-1.616-4.549-2.854-.336-1.047-.507-2.126-.578-3.161-.042.025-.085.047-.127.072a26.656 26.656 0 0 0 2.912-1.974c4.102-3.208 7.917-6.842 7.917-10.922 0-.512-.017-1.33-.046-2.371.29.056.596.055.881-.085.955-.467 1.83-4.223 2.151-5.436.319-1.213.417-2.924-.957-4.042a1.54 1.54 0 0 0-1.092-.346c.041-.288.081-.584.122-.895.396-2.969 4.316-13.045-1.255-19.828-2.1-2.559-4.725-3.862-7.628-3.506-2.21-2.876-7.8-3.861-13.145-3.146-5.895.788-9.311 1.771-13.549 4.642-2.424 1.643-6.682 5.546-7.304 10.329-.57 4.371.536 9.346 1.377 12.403a1.53 1.53 0 0 0-1.073.346c-1.374 1.118-1.275 2.829-.957 4.042.319 1.213 1.194 4.969 2.151 5.436.757.369 1.656-.173 1.999-.416-.004.614-.007 1.211-.007 1.767 0 4.839 2.981 7.966 7.402 11.339 1.141.87 2.513 1.752 3.883 2.555-.069 1.045-.24 2.137-.58 3.196-.242.755-1.268 1.428-2.65 2.065-.857.396-6.13 2.037-6.13 2.037l-6.603 1.954a12.282 12.282 0 0 0-8.726 10.514c8.784 7.56 20.206 12.138 32.702 12.138z" style="fill:#fff"/></svg>